# xmcd
# 
# Track frame offsets:
#     150
#     11097
#     23280
#     38235
#     49635
#     63325
#     76940
#     90252
#     100185
#     109755
#     122112
#     134132
#     147690
#     160305
#     172050
# 
# Disc length: 2451
# 
# Revision: 9
# Processed by: cddbd v1.5.2PL0 Copyright (c) Steve Scherf et al.
# Submitted via: fre:ac v1.0.31
# 
DISCID=c509910f
DTITLE=Various Artist - Classic Country - TL 626-07 - Golden '50s - CD 2
DYEAR=1999
DGENRE=Country
TTITLE0=Hank Williams - I can't help it (if I'm still in love with you)
TTITLE1=Jim Reeves - Mexican Joe
TTITLE2=Slim Whitman - Indian love call
TTITLE3=Carl Smith - Hey Joe
TTITLE4=Davis Sisters - I forgot more than you'll ever know
TTITLE5=Pee Wee King - Slow poke
TTITLE6=Hank Snow - I don't hurt anymore
TTITLE7=Eddy Arnold - I wanna play house with you
TTITLE8=Lefty Frizzell - Always late (with your kisses)
TTITLE9=Hank Thompson and His Brazos Valley Boys - The wild side of life
TTITLE10=Kitty Wells - It wasn't God who made honky tonk angels
TTITLE11=Stuart Hamblen - This ole house
TTITLE12=Red Foley - Chattanoogie shoe shine boy
TTITLE13=Hank Williams with His Drifting Cowboys - Kaw-Liga
TTITLE14="Tennessee" Ernie Ford - Shotgun boogie
EXTD=YEAR: 1999
EXTT0=
EXTT1=
EXTT2=
EXTT3=
EXTT4=
EXTT5=
EXTT6=
EXTT7=
EXTT8=
EXTT9=
EXTT10=
EXTT11=
EXTT12=
EXTT13=
EXTT14=
PLAYORDER=
